<?xml version="1.0" encoding="utf-8"?>
<!-- Generator: Adobe Illustrator 19.0.0, SVG Export Plug-In . SVG Version: 6.00 Build 0)  -->
<svg version="1.1" id="Ebene_1" xmlns="http://www.w3.org/2000/svg" xmlns:xlink="http://www.w3.org/1999/xlink" x="0px" y="0px"
	 viewBox="-180 58.3 480 480" style="enable-background:new -180 58.3 480 480;" xml:space="preserve">
<style type="text/css">
	.st0{fill:#FF0000;}
</style>
<g id="cross">
	<path class="st0" d="M130.2,294.3L233.5,191c5-5,5-13.2,0-18.3L178.7,118c-5-5-13.2-5-18.2,0L57.2,221.3L-46.1,118
		c-5-5-13.2-5-18.2,0l-54.7,54.7c-5,5-5,13.2,0,18.3l103.3,103.3L-119,397.5c-5,5-5,13.2,0,18.2l54.7,54.7c5,5,13.2,5,18.2,0
		L57.2,367.2l103.3,103.3c5,5,13.2,5,18.2,0l54.7-54.7c5-5,5-13.2,0-18.2L130.2,294.3z"/>
</g>
</svg>
